<?xml version="1.0" encoding="UTF-8" standalone="no"?>
<svg
   xmlns:dc="http://purl.org/dc/elements/1.1/"
   xmlns:cc="http://creativecommons.org/ns#"
   xmlns:rdf="http://www.w3.org/1999/02/22-rdf-syntax-ns#"
   xmlns:svg="http://www.w3.org/2000/svg"
   xmlns="http://www.w3.org/2000/svg"
   xmlns:sodipodi="http://sodipodi.sourceforge.net/DTD/sodipodi-0.dtd"
   xmlns:inkscape="http://www.inkscape.org/namespaces/inkscape"
   width="146"
   height="288"
   viewBox="0 0 146 288"
   id="svg2"
   version="1.1"
   inkscape:version="0.48.4 r9939"
   sodipodi:docname="Const1.svg">
  <metadata
     id="metadata154">
    <rdf:RDF>
      <cc:Work
         rdf:about="">
        <dc:format>image/svg+xml</dc:format>
        <dc:type
           rdf:resource="http://purl.org/dc/dcmitype/StillImage" />
      </cc:Work>
    </rdf:RDF>
  </metadata>
  <sodipodi:namedview
     pagecolor="#ffffff"
     bordercolor="#666666"
     borderopacity="1"
     objecttolerance="10"
     gridtolerance="10"
     guidetolerance="10"
     inkscape:pageopacity="0"
     inkscape:pageshadow="2"
     inkscape:window-width="640"
     inkscape:window-height="480"
     id="namedview152"
     showgrid="false"
     inkscape:zoom="0.81944444"
     inkscape:cx="73"
     inkscape:cy="144"
     inkscape:window-x="0"
     inkscape:window-y="0"
     inkscape:window-maximized="0"
     inkscape:current-layer="svg2" />
  <rect
     x="71"
     y="-217"
     width="146"
     height="288"
     id="rect4"
     transform="matrix(0,1,-1,0,0,0)"
     style="fill:#ffffff" />
  <g
     clip-path="url(#clip_rect_0)"
     id="g6"
     transform="matrix(0,1,-1,0,214.375,70.645)">
    <g
       transform="translate(-62,311)"
       id="g8">
      <g
         id="g10">
        <rect
           x="275"
           y="103"
           width="30"
           height="14"
           rx="6.7741899"
           ry="6.7741899"
           transform="matrix(0,-1,1,0,0,0)"
           id="rect12"
           style="fill:#ffffff;stroke:none" />
        <rect
           x="275"
           y="103"
           width="30"
           height="14"
           rx="6.7741899"
           ry="6.7741899"
           transform="matrix(0,-1,1,0,0,0)"
           id="rect14"
           style="fill:none;stroke:#000000;stroke-width:1" />
        <text
           x="278.5"
           y="129"
           font-size="10"
           transform="matrix(0,-1,1,0,0,0)"
           id="text16"
           style="font-size:10px;fill:#000000;stroke:none;font-family:Helvetica">Out1</text>
        <text
           x="287"
           y="114.5"
           font-size="10"
           transform="matrix(0,-1,1,0,0,0)"
           clip-path="url(#clip_rect_1)"
           id="text18"
           style="font-size:10px;fill:#000000;stroke:none;font-family:Helvetica">1</text>
        <ellipse
           cx="235"
           cy="110"
           rx="10"
           ry="10"
           transform="matrix(0,-1,1,0,0,0)"
           id="ellipse20"
           d="m 245,110 c 0,5.52285 -4.47715,10 -10,10 -5.52285,0 -10,-4.47715 -10,-10 0,-5.52285 4.47715,-10 10,-10 5.52285,0 10,4.47715 10,10 z"
           sodipodi:cx="235"
           sodipodi:cy="110"
           sodipodi:rx="10"
           sodipodi:ry="10"
           style="fill:#ffffff;stroke:none" />
        <ellipse
           cx="235"
           cy="110"
           rx="10"
           ry="10"
           transform="matrix(0,-1,1,0,0,0)"
           id="ellipse22"
           d="m 245,110 c 0,5.52285 -4.47715,10 -10,10 -5.52285,0 -10,-4.47715 -10,-10 0,-5.52285 4.47715,-10 10,-10 5.52285,0 10,4.47715 10,10 z"
           sodipodi:cx="235"
           sodipodi:cy="110"
           sodipodi:rx="10"
           sodipodi:ry="10"
           style="fill:none;stroke:#000000;stroke-width:1" />
        <line
           x1="228"
           y1="110"
           x2="232"
           y2="110"
           transform="matrix(0,-1,1,0,0,0)"
           clip-path="url(#clip_rect_2)"
           id="line24"
           style="stroke:#000000;stroke-width:1" />
        <line
           x1="230"
           y1="108"
           x2="230"
           y2="112"
           transform="matrix(0,-1,1,0,0,0)"
           clip-path="url(#clip_rect_2)"
           id="line26"
           style="stroke:#000000;stroke-width:1" />
        <line
           x1="233"
           y1="115"
           x2="237"
           y2="115"
           transform="matrix(0,-1,1,0,0,0)"
           clip-path="url(#clip_rect_2)"
           id="line28"
           style="stroke:#000000;stroke-width:1" />
        <line
           x1="235"
           y1="113"
           x2="235"
           y2="117"
           transform="matrix(0,-1,1,0,0,0)"
           clip-path="url(#clip_rect_2)"
           id="line30"
           style="stroke:#000000;stroke-width:1" />
        <rect
           x="175"
           y="127"
           width="30"
           height="31"
           transform="matrix(0,-1,1,0,0,0)"
           id="rect32"
           style="fill:#9bd5fc;stroke:none" />
        <text
           x="172"
           y="170"
           font-size="10"
           transform="matrix(0,-1,1,0,0,0)"
           id="text34"
           style="font-size:10px;fill:#000000;stroke:none;font-family:Helvetica">Product</text>
        <line
           x1="193"
           y1="145"
           x2="187"
           y2="139"
           transform="matrix(0,-1,1,0,0,0)"
           clip-path="url(#clip_rect_3)"
           id="line36"
           style="stroke:#000000;stroke-width:1" />
        <line
           x1="193"
           y1="139"
           x2="187"
           y2="145"
           transform="matrix(0,-1,1,0,0,0)"
           clip-path="url(#clip_rect_3)"
           id="line38"
           style="stroke:#000000;stroke-width:1" />
        <rect
           x="175"
           y="127"
           width="30"
           height="31"
           transform="matrix(0,-1,1,0,0,0)"
           id="rect40"
           style="fill:none;stroke:#000000;stroke-width:1" />
        <polygon
           points="150,170 150,170 120,185 120,155 120,155 "
           transform="matrix(0,-1,1,0,0,0)"
           id="polygon42"
           style="fill:#9bd5fc;stroke:none" />
        <polyline
           points="120,155 150,170 150,170 120,185 120,155 "
           transform="matrix(0,-1,1,0,0,0)"
           id="polyline44"
           style="fill:none;stroke:#000000;stroke-width:1" />
        <text
           x="124"
           y="197"
           font-size="10"
           transform="matrix(0,-1,1,0,0,0)"
           id="text46"
           style="font-size:10px;fill:#000000;stroke:none;font-family:Helvetica">Gain</text>
        <text
           x="125"
           y="174.5"
           font-size="10"
           transform="matrix(0,-1,1,0,0,0)"
           clip-path="url(#clip_rect_4)"
           id="text48"
           style="font-size:10px;fill:#000000;stroke:none;font-family:Helvetica">5</text>
        <rect
           x="40"
           y="80"
           width="30"
           height="30"
           transform="matrix(0,-1,1,0,0,0)"
           id="rect50"
           style="fill:#9bd5fc;stroke:none" />
        <text
           x="31"
           y="122"
           font-size="10"
           transform="matrix(0,-1,1,0,0,0)"
           id="text52"
           style="font-size:10px;fill:#000000;stroke:none;font-family:Helvetica">Constant1</text>
        <text
           x="44.5"
           y="99.5"
           font-size="10"
           transform="matrix(0,-1,1,0,0,0)"
           clip-path="url(#clip_rect_5)"
           id="text54"
           style="font-size:10px;fill:#000000;stroke:none;font-family:Helvetica">7.12</text>
        <rect
           x="40"
           y="80"
           width="30"
           height="30"
           transform="matrix(0,-1,1,0,0,0)"
           id="rect56"
           style="fill:none;stroke:#000000;stroke-width:1" />
        <rect
           x="45"
           y="152"
           width="45"
           height="36"
           transform="matrix(0,-1,1,0,0,0)"
           id="rect58"
           style="fill:#9bd5fc;stroke:none" />
        <text
           x="46"
           y="200"
           font-size="10"
           transform="matrix(0,-1,1,0,0,0)"
           id="text60"
           style="font-size:10px;fill:#000000;stroke:none;font-family:Helvetica">Constant</text>
        <text
           x="53.5"
           y="174.5"
           font-size="10"
           transform="matrix(0,-1,1,0,0,0)"
           clip-path="url(#clip_rect_6)"
           id="text62"
           style="font-size:10px;fill:#000000;stroke:none;font-family:Helvetica">12.34</text>
        <rect
           x="45"
           y="152"
           width="45"
           height="36"
           transform="matrix(0,-1,1,0,0,0)"
           id="rect64"
           style="fill:none;stroke:#000000;stroke-width:1" />
        <rect
           x="145"
           y="68"
           width="30"
           height="14"
           rx="6.7741899"
           ry="6.7741899"
           transform="matrix(0,-1,1,0,0,0)"
           id="rect66"
           style="fill:#ffffff;stroke:none" />
        <rect
           x="145"
           y="68"
           width="30"
           height="14"
           rx="6.7741899"
           ry="6.7741899"
           transform="matrix(0,-1,1,0,0,0)"
           id="rect68"
           style="fill:none;stroke:#000000;stroke-width:1" />
        <text
           x="152.5"
           y="94"
           font-size="10"
           transform="matrix(0,-1,1,0,0,0)"
           id="text70"
           style="font-size:10px;fill:#000000;stroke:none;font-family:Helvetica">In1</text>
        <text
           x="157"
           y="79.5"
           font-size="10"
           transform="matrix(0,-1,1,0,0,0)"
           clip-path="url(#clip_rect_7)"
           id="text72"
           style="font-size:10px;fill:#000000;stroke:none;font-family:Helvetica">1</text>
        <line
           x1="70"
           y1="95"
           x2="75"
           y2="95"
           transform="matrix(0,-1,1,0,0,0)"
           id="line74"
           style="stroke:#000000;stroke-width:1" />
        <line
           x1="170"
           y1="135"
           x2="160"
           y2="135"
           transform="matrix(0,-1,1,0,0,0)"
           id="line76"
           style="stroke:#000000;stroke-width:1" />
        <polygon
           points="165,140 175,135 165,130 165,130 "
           transform="matrix(0,-1,1,0,0,0)"
           id="polygon78"
           style="fill:#000000;stroke:none" />
        <polyline
           points="73,95 75,95 130,95 130,135 160,135 162,135 "
           transform="matrix(0,-1,1,0,0,0)"
           id="polyline80"
           style="fill:none;stroke:#000000;stroke-width:1" />
        <line
           x1="175"
           y1="75"
           x2="180"
           y2="75"
           transform="matrix(0,-1,1,0,0,0)"
           id="line82"
           style="stroke:#000000;stroke-width:1" />
        <line
           x1="220"
           y1="110"
           x2="210"
           y2="110"
           transform="matrix(0,-1,1,0,0,0)"
           id="line84"
           style="stroke:#000000;stroke-width:1" />
        <polygon
           points="215,115 225,110 215,105 215,105 "
           transform="matrix(0,-1,1,0,0,0)"
           id="polygon86"
           style="fill:#000000;stroke:none" />
        <polyline
           points="178,75 180,75 205,75 205,110 210,110 212,110 "
           transform="matrix(0,-1,1,0,0,0)"
           id="polyline88"
           style="fill:none;stroke:#000000;stroke-width:1" />
        <line
           x1="205"
           y1="145"
           x2="210"
           y2="145"
           transform="matrix(0,-1,1,0,0,0)"
           id="line90"
           style="stroke:#000000;stroke-width:1" />
        <line
           x1="235"
           y1="125"
           x2="235"
           y2="135"
           transform="matrix(0,-1,1,0,0,0)"
           id="line92"
           style="stroke:#000000;stroke-width:1" />
        <polygon
           points="240,130 235,120 230,130 230,130 "
           transform="matrix(0,-1,1,0,0,0)"
           id="polygon94"
           style="fill:#000000;stroke:none" />
        <polyline
           points="208,145 210,145 210,135 235,135 235,133 "
           transform="matrix(0,-1,1,0,0,0)"
           id="polyline96"
           style="fill:none;stroke:#000000;stroke-width:1" />
        <line
           x1="90"
           y1="170"
           x2="95"
           y2="170"
           transform="matrix(0,-1,1,0,0,0)"
           id="line98"
           style="stroke:#000000;stroke-width:1" />
        <line
           x1="115"
           y1="170"
           x2="105"
           y2="170"
           transform="matrix(0,-1,1,0,0,0)"
           id="line100"
           style="stroke:#000000;stroke-width:1" />
        <polygon
           points="110,175 120,170 110,165 110,165 "
           transform="matrix(0,-1,1,0,0,0)"
           id="polygon102"
           style="fill:#000000;stroke:none" />
        <polyline
           points="93,170 95,170 105,170 107,170 "
           transform="matrix(0,-1,1,0,0,0)"
           id="polyline104"
           style="fill:none;stroke:#000000;stroke-width:1" />
        <line
           x1="150"
           y1="170"
           x2="155"
           y2="170"
           transform="matrix(0,-1,1,0,0,0)"
           id="line106"
           style="stroke:#000000;stroke-width:1" />
        <line
           x1="170"
           y1="150"
           x2="160"
           y2="150"
           transform="matrix(0,-1,1,0,0,0)"
           id="line108"
           style="stroke:#000000;stroke-width:1" />
        <polygon
           points="165,155 175,150 165,145 165,145 "
           transform="matrix(0,-1,1,0,0,0)"
           id="polygon110"
           style="fill:#000000;stroke:none" />
        <polyline
           points="153,170 155,170 155,150 160,150 162,150 "
           transform="matrix(0,-1,1,0,0,0)"
           id="polyline112"
           style="fill:none;stroke:#000000;stroke-width:1" />
        <line
           x1="245"
           y1="110"
           x2="250"
           y2="110"
           transform="matrix(0,-1,1,0,0,0)"
           id="line114"
           style="stroke:#000000;stroke-width:1" />
        <line
           x1="270"
           y1="110"
           x2="260"
           y2="110"
           transform="matrix(0,-1,1,0,0,0)"
           id="line116"
           style="stroke:#000000;stroke-width:1" />
        <polygon
           points="265,115 275,110 265,105 265,105 "
           transform="matrix(0,-1,1,0,0,0)"
           id="polygon118"
           style="fill:#000000;stroke:none" />
        <polyline
           points="248,110 250,110 260,110 262,110 "
           transform="matrix(0,-1,1,0,0,0)"
           id="polyline120"
           style="fill:none;stroke:#000000;stroke-width:1" />
      </g>
    </g>
  </g>
  <g
     transform="matrix(0,1,-1,0,288,288)"
     id="g122">
    <g
       id="g124" />
  </g>
  <defs
     id="defs126">
    <clipPath
       id="clip_rect_0">
      <rect
         x="4"
         y="4"
         width="136"
         height="278"
         id="rect129" />
    </clipPath>
    <clipPath
       id="clip_rect_1">
      <rect
         x="275"
         y="103"
         width="30"
         height="14"
         id="rect132" />
    </clipPath>
    <clipPath
       id="clip_rect_2">
      <rect
         x="225"
         y="100"
         width="20"
         height="20"
         id="rect135" />
    </clipPath>
    <clipPath
       id="clip_rect_3">
      <rect
         x="175"
         y="127"
         width="30"
         height="31"
         id="rect138" />
    </clipPath>
    <clipPath
       id="clip_rect_4">
      <rect
         x="120"
         y="155"
         width="30"
         height="30"
         id="rect141" />
    </clipPath>
    <clipPath
       id="clip_rect_5">
      <rect
         x="40"
         y="80"
         width="30"
         height="30"
         id="rect144" />
    </clipPath>
    <clipPath
       id="clip_rect_6">
      <rect
         x="45"
         y="152"
         width="45"
         height="36"
         id="rect147" />
    </clipPath>
    <clipPath
       id="clip_rect_7">
      <rect
         x="145"
         y="68"
         width="30"
         height="14"
         id="rect150" />
    </clipPath>
  </defs>
</svg>
