<?xml version="1.0" encoding="UTF-8" standalone="no"?>
<svg
   xmlns:dc="http://purl.org/dc/elements/1.1/"
   xmlns:cc="http://creativecommons.org/ns#"
   xmlns:rdf="http://www.w3.org/1999/02/22-rdf-syntax-ns#"
   xmlns:svg="http://www.w3.org/2000/svg"
   xmlns="http://www.w3.org/2000/svg"
   xmlns:sodipodi="http://sodipodi.sourceforge.net/DTD/sodipodi-0.dtd"
   xmlns:inkscape="http://www.inkscape.org/namespaces/inkscape"
   width="88"
   height="179"
   viewBox="0 0 88 179"
   id="svg2"
   version="1.1"
   inkscape:version="0.48.4 r9939"
   sodipodi:docname="Const1_export.svg">
  <metadata
     id="metadata95">
    <rdf:RDF>
      <cc:Work
         rdf:about="">
        <dc:format>image/svg+xml</dc:format>
        <dc:type
           rdf:resource="http://purl.org/dc/dcmitype/StillImage" />
      </cc:Work>
    </rdf:RDF>
  </metadata>
  <sodipodi:namedview
     pagecolor="#ffffff"
     bordercolor="#666666"
     borderopacity="1"
     objecttolerance="10"
     gridtolerance="10"
     guidetolerance="10"
     inkscape:pageopacity="0"
     inkscape:pageshadow="2"
     inkscape:window-width="640"
     inkscape:window-height="480"
     id="namedview93"
     showgrid="false"
     inkscape:zoom="1.3184358"
     inkscape:cx="44"
     inkscape:cy="89.5"
     inkscape:window-x="0"
     inkscape:window-y="0"
     inkscape:window-maximized="0"
     inkscape:current-layer="svg2" />
  <rect
     x="45.5"
     y="-133.5"
     width="88"
     height="179"
     id="rect4"
     transform="matrix(0,1,-1,0,0,0)"
     style="fill:#ffffff" />
  <g
     clip-path="url(#clip_rect_0)"
     id="g6"
     transform="matrix(0,1,-1,0,131.365,45.635)">
    <g
       transform="translate(-72,261)"
       id="g8">
      <g
         id="g10">
        <rect
           x="225"
           y="93"
           width="30"
           height="14"
           rx="6.7741899"
           ry="6.7741899"
           transform="matrix(0,-1,1,0,0,0)"
           id="rect12"
           style="fill:#ffffff;stroke:none" />
        <rect
           x="225"
           y="93"
           width="30"
           height="14"
           rx="6.7741899"
           ry="6.7741899"
           transform="matrix(0,-1,1,0,0,0)"
           id="rect14"
           style="fill:none;stroke:#000000;stroke-width:1" />
        <text
           x="228.5"
           y="119"
           font-size="10"
           transform="matrix(0,-1,1,0,0,0)"
           id="text16"
           style="font-size:10px;fill:#000000;stroke:none;font-family:Helvetica">Out1</text>
        <text
           x="237"
           y="104.5"
           font-size="10"
           transform="matrix(0,-1,1,0,0,0)"
           clip-path="url(#clip_rect_1)"
           id="text18"
           style="font-size:10px;fill:#000000;stroke:none;font-family:Helvetica">1</text>
        <ellipse
           cx="190"
           cy="100"
           rx="10"
           ry="10"
           transform="matrix(0,-1,1,0,0,0)"
           id="ellipse20"
           d="m 200,100 c 0,5.52285 -4.47715,10 -10,10 -5.52285,0 -10,-4.47715 -10,-10 0,-5.522847 4.47715,-10 10,-10 5.52285,0 10,4.477153 10,10 z"
           sodipodi:cx="190"
           sodipodi:cy="100"
           sodipodi:rx="10"
           sodipodi:ry="10"
           style="fill:#ffffff;stroke:none" />
        <ellipse
           cx="190"
           cy="100"
           rx="10"
           ry="10"
           transform="matrix(0,-1,1,0,0,0)"
           id="ellipse22"
           d="m 200,100 c 0,5.52285 -4.47715,10 -10,10 -5.52285,0 -10,-4.47715 -10,-10 0,-5.522847 4.47715,-10 10,-10 5.52285,0 10,4.477153 10,10 z"
           sodipodi:cx="190"
           sodipodi:cy="100"
           sodipodi:rx="10"
           sodipodi:ry="10"
           style="fill:none;stroke:#000000;stroke-width:1" />
        <line
           x1="183"
           y1="100"
           x2="187"
           y2="100"
           transform="matrix(0,-1,1,0,0,0)"
           clip-path="url(#clip_rect_2)"
           id="line24"
           style="stroke:#000000;stroke-width:1" />
        <line
           x1="185"
           y1="98"
           x2="185"
           y2="102"
           transform="matrix(0,-1,1,0,0,0)"
           clip-path="url(#clip_rect_2)"
           id="line26"
           style="stroke:#000000;stroke-width:1" />
        <line
           x1="188"
           y1="105"
           x2="192"
           y2="105"
           transform="matrix(0,-1,1,0,0,0)"
           clip-path="url(#clip_rect_2)"
           id="line28"
           style="stroke:#000000;stroke-width:1" />
        <line
           x1="190"
           y1="103"
           x2="190"
           y2="107"
           transform="matrix(0,-1,1,0,0,0)"
           clip-path="url(#clip_rect_2)"
           id="line30"
           style="stroke:#000000;stroke-width:1" />
        <rect
           x="90"
           y="110"
           width="50"
           height="30"
           transform="matrix(0,-1,1,0,0,0)"
           id="rect32"
           style="fill:#a3d9fc;stroke:none" />
        <text
           x="94"
           y="152"
           font-size="10"
           transform="matrix(0,-1,1,0,0,0)"
           id="text34"
           style="font-size:10px;fill:#000000;stroke:none;font-family:Helvetica">Constant</text>
        <text
           x="95.5"
           y="129.5"
           font-size="10"
           transform="matrix(0,-1,1,0,0,0)"
           clip-path="url(#clip_rect_3)"
           id="text36"
           style="font-size:10px;fill:#000000;stroke:none;font-family:Helvetica">439.304</text>
        <rect
           x="90"
           y="110"
           width="50"
           height="30"
           transform="matrix(0,-1,1,0,0,0)"
           id="rect38"
           style="fill:none;stroke:#000000;stroke-width:1" />
        <rect
           x="90"
           y="78"
           width="30"
           height="14"
           rx="6.7741899"
           ry="6.7741899"
           transform="matrix(0,-1,1,0,0,0)"
           id="rect40"
           style="fill:#ffffff;stroke:none" />
        <rect
           x="90"
           y="78"
           width="30"
           height="14"
           rx="6.7741899"
           ry="6.7741899"
           transform="matrix(0,-1,1,0,0,0)"
           id="rect42"
           style="fill:none;stroke:#000000;stroke-width:1" />
        <text
           x="97.5"
           y="104"
           font-size="10"
           transform="matrix(0,-1,1,0,0,0)"
           id="text44"
           style="font-size:10px;fill:#000000;stroke:none;font-family:Helvetica">In1</text>
        <text
           x="102"
           y="89.5"
           font-size="10"
           transform="matrix(0,-1,1,0,0,0)"
           clip-path="url(#clip_rect_4)"
           id="text46"
           style="font-size:10px;fill:#000000;stroke:none;font-family:Helvetica">1</text>
        <line
           x1="140"
           y1="125"
           x2="145"
           y2="125"
           transform="matrix(0,-1,1,0,0,0)"
           id="line48"
           style="stroke:#000000;stroke-width:1" />
        <line
           x1="190"
           y1="115"
           x2="190"
           y2="125"
           transform="matrix(0,-1,1,0,0,0)"
           id="line50"
           style="stroke:#000000;stroke-width:1" />
        <polygon
           points="195,120 190,110 185,120 185,120 "
           transform="matrix(0,-1,1,0,0,0)"
           id="polygon52"
           style="fill:#000000;stroke:none" />
        <polyline
           points="143,125 145,125 190,125 190,123 "
           transform="matrix(0,-1,1,0,0,0)"
           id="polyline54"
           style="fill:none;stroke:#000000;stroke-width:1" />
        <line
           x1="200"
           y1="100"
           x2="205"
           y2="100"
           transform="matrix(0,-1,1,0,0,0)"
           id="line56"
           style="stroke:#000000;stroke-width:1" />
        <line
           x1="220"
           y1="100"
           x2="210"
           y2="100"
           transform="matrix(0,-1,1,0,0,0)"
           id="line58"
           style="stroke:#000000;stroke-width:1" />
        <polygon
           points="215,105 225,100 215,95 215,95 "
           transform="matrix(0,-1,1,0,0,0)"
           id="polygon60"
           style="fill:#000000;stroke:none" />
        <polyline
           points="203,100 205,100 210,100 212,100 "
           transform="matrix(0,-1,1,0,0,0)"
           id="polyline62"
           style="fill:none;stroke:#000000;stroke-width:1" />
        <line
           x1="120"
           y1="85"
           x2="125"
           y2="85"
           transform="matrix(0,-1,1,0,0,0)"
           id="line64"
           style="stroke:#000000;stroke-width:1" />
        <line
           x1="175"
           y1="100"
           x2="165"
           y2="100"
           transform="matrix(0,-1,1,0,0,0)"
           id="line66"
           style="stroke:#000000;stroke-width:1" />
        <polygon
           points="170,105 180,100 170,95 170,95 "
           transform="matrix(0,-1,1,0,0,0)"
           id="polygon68"
           style="fill:#000000;stroke:none" />
        <polyline
           points="123,85 125,85 160,85 160,100 165,100 167,100 "
           transform="matrix(0,-1,1,0,0,0)"
           id="polyline70"
           style="fill:none;stroke:#000000;stroke-width:1" />
      </g>
    </g>
  </g>
  <g
     transform="matrix(0,1,-1,0,179,179)"
     id="g72">
    <g
       id="g74" />
  </g>
  <defs
     id="defs76">
    <clipPath
       id="clip_rect_0">
      <rect
         x="4"
         y="4"
         width="78"
         height="169"
         id="rect79" />
    </clipPath>
    <clipPath
       id="clip_rect_1">
      <rect
         x="225"
         y="93"
         width="30"
         height="14"
         id="rect82" />
    </clipPath>
    <clipPath
       id="clip_rect_2">
      <rect
         x="180"
         y="90"
         width="20"
         height="20"
         id="rect85" />
    </clipPath>
    <clipPath
       id="clip_rect_3">
      <rect
         x="90"
         y="110"
         width="50"
         height="30"
         id="rect88" />
    </clipPath>
    <clipPath
       id="clip_rect_4">
      <rect
         x="90"
         y="78"
         width="30"
         height="14"
         id="rect91" />
    </clipPath>
  </defs>
</svg>
