<?xml version="1.0" encoding="UTF-8" standalone="no"?>
<svg
   xmlns:dc="http://purl.org/dc/elements/1.1/"
   xmlns:cc="http://creativecommons.org/ns#"
   xmlns:rdf="http://www.w3.org/1999/02/22-rdf-syntax-ns#"
   xmlns:svg="http://www.w3.org/2000/svg"
   xmlns="http://www.w3.org/2000/svg"
   xmlns:sodipodi="http://sodipodi.sourceforge.net/DTD/sodipodi-0.dtd"
   xmlns:inkscape="http://www.inkscape.org/namespaces/inkscape"
   width="122"
   height="379"
   viewBox="0 0 122 379"
   id="svg2"
   version="1.1"
   inkscape:version="0.48.4 r9939"
   sodipodi:docname="Flatten1_export.svg">
  <metadata
     id="metadata203">
    <rdf:RDF>
      <cc:Work
         rdf:about="">
        <dc:format>image/svg+xml</dc:format>
        <dc:type
           rdf:resource="http://purl.org/dc/dcmitype/StillImage" />
      </cc:Work>
    </rdf:RDF>
  </metadata>
  <sodipodi:namedview
     pagecolor="#ffffff"
     bordercolor="#666666"
     borderopacity="1"
     objecttolerance="10"
     gridtolerance="10"
     guidetolerance="10"
     inkscape:pageopacity="0"
     inkscape:pageshadow="2"
     inkscape:window-width="640"
     inkscape:window-height="480"
     id="namedview201"
     showgrid="false"
     inkscape:zoom="0.62269129"
     inkscape:cx="61"
     inkscape:cy="189.5"
     inkscape:window-x="0"
     inkscape:window-y="0"
     inkscape:window-maximized="0"
     inkscape:current-layer="svg2" />
  <rect
     x="128.5"
     y="-250.5"
     width="122"
     height="379"
     id="rect4"
     transform="matrix(0,1,-1,0,0,0)"
     style="fill:#ffffff" />
  <g
     clip-path="url(#clip_rect_0)"
     id="g6"
     transform="matrix(0,1,-1,0,248.365,128.635)">
    <g
       transform="translate(-96,401)"
       id="g8">
      <g
         id="g10">
        <rect
           x="365"
           y="128"
           width="30"
           height="14"
           rx="6.7741899"
           ry="6.7741899"
           transform="matrix(0,-1,1,0,0,0)"
           id="rect12"
           style="fill:#ffffff;stroke:none" />
        <rect
           x="365"
           y="128"
           width="30"
           height="14"
           rx="6.7741899"
           ry="6.7741899"
           transform="matrix(0,-1,1,0,0,0)"
           id="rect14"
           style="fill:none;stroke:#000000;stroke-width:1" />
        <text
           x="368.5"
           y="154"
           font-size="10"
           transform="matrix(0,-1,1,0,0,0)"
           id="text16"
           style="font-size:10px;fill:#000000;stroke:none;font-family:Helvetica">Out1</text>
        <text
           x="377"
           y="139.5"
           font-size="10"
           transform="matrix(0,-1,1,0,0,0)"
           clip-path="url(#clip_rect_1)"
           id="text18"
           style="font-size:10px;fill:#000000;stroke:none;font-family:Helvetica">1</text>
        <ellipse
           cx="285"
           cy="135"
           rx="10"
           ry="10"
           transform="matrix(0,-1,1,0,0,0)"
           id="ellipse20"
           d="m 295,135 c 0,5.52285 -4.47715,10 -10,10 -5.52285,0 -10,-4.47715 -10,-10 0,-5.52285 4.47715,-10 10,-10 5.52285,0 10,4.47715 10,10 z"
           sodipodi:cx="285"
           sodipodi:cy="135"
           sodipodi:rx="10"
           sodipodi:ry="10"
           style="fill:#e8d152;stroke:none" />
        <ellipse
           cx="285"
           cy="135"
           rx="10"
           ry="10"
           transform="matrix(0,-1,1,0,0,0)"
           id="ellipse22"
           d="m 295,135 c 0,5.52285 -4.47715,10 -10,10 -5.52285,0 -10,-4.47715 -10,-10 0,-5.52285 4.47715,-10 10,-10 5.52285,0 10,4.47715 10,10 z"
           sodipodi:cx="285"
           sodipodi:cy="135"
           sodipodi:rx="10"
           sodipodi:ry="10"
           style="fill:none;stroke:#000000;stroke-width:1" />
        <line
           x1="283"
           y1="130"
           x2="287"
           y2="130"
           transform="matrix(0,-1,1,0,0,0)"
           clip-path="url(#clip_rect_2)"
           id="line24"
           style="stroke:#000000;stroke-width:1" />
        <line
           x1="285"
           y1="128"
           x2="285"
           y2="132"
           transform="matrix(0,-1,1,0,0,0)"
           clip-path="url(#clip_rect_2)"
           id="line26"
           style="stroke:#000000;stroke-width:1" />
        <line
           x1="278"
           y1="135"
           x2="282"
           y2="135"
           transform="matrix(0,-1,1,0,0,0)"
           clip-path="url(#clip_rect_2)"
           id="line28"
           style="stroke:#000000;stroke-width:1" />
        <line
           x1="280"
           y1="133"
           x2="280"
           y2="137"
           transform="matrix(0,-1,1,0,0,0)"
           clip-path="url(#clip_rect_2)"
           id="line30"
           style="stroke:#000000;stroke-width:1" />
        <ellipse
           cx="330"
           cy="135"
           rx="10"
           ry="10"
           transform="matrix(0,-1,1,0,0,0)"
           id="ellipse32"
           d="m 340,135 c 0,5.52285 -4.47715,10 -10,10 -5.52285,0 -10,-4.47715 -10,-10 0,-5.52285 4.47715,-10 10,-10 5.52285,0 10,4.47715 10,10 z"
           sodipodi:cx="330"
           sodipodi:cy="135"
           sodipodi:rx="10"
           sodipodi:ry="10"
           style="fill:#ffffff;stroke:none" />
        <ellipse
           cx="330"
           cy="135"
           rx="10"
           ry="10"
           transform="matrix(0,-1,1,0,0,0)"
           id="ellipse34"
           d="m 340,135 c 0,5.52285 -4.47715,10 -10,10 -5.52285,0 -10,-4.47715 -10,-10 0,-5.52285 4.47715,-10 10,-10 5.52285,0 10,4.47715 10,10 z"
           sodipodi:cx="330"
           sodipodi:cy="135"
           sodipodi:rx="10"
           sodipodi:ry="10"
           style="fill:none;stroke:#000000;stroke-width:1" />
        <line
           x1="323"
           y1="135"
           x2="327"
           y2="135"
           transform="matrix(0,-1,1,0,0,0)"
           clip-path="url(#clip_rect_3)"
           id="line36"
           style="stroke:#000000;stroke-width:1" />
        <line
           x1="325"
           y1="133"
           x2="325"
           y2="137"
           transform="matrix(0,-1,1,0,0,0)"
           clip-path="url(#clip_rect_3)"
           id="line38"
           style="stroke:#000000;stroke-width:1" />
        <line
           x1="328"
           y1="140"
           x2="332"
           y2="140"
           transform="matrix(0,-1,1,0,0,0)"
           clip-path="url(#clip_rect_3)"
           id="line40"
           style="stroke:#000000;stroke-width:1" />
        <line
           x1="330"
           y1="138"
           x2="330"
           y2="142"
           transform="matrix(0,-1,1,0,0,0)"
           clip-path="url(#clip_rect_3)"
           id="line42"
           style="stroke:#000000;stroke-width:1" />
        <rect
           x="220"
           y="122"
           width="30"
           height="31"
           transform="matrix(0,-1,1,0,0,0)"
           id="rect44"
           style="fill:#e8d152;stroke:none" />
        <text
           x="214"
           y="165"
           font-size="10"
           transform="matrix(0,-1,1,0,0,0)"
           id="text46"
           style="font-size:10px;fill:#000000;stroke:none;font-family:Helvetica">Product2</text>
        <line
           x1="238"
           y1="140"
           x2="232"
           y2="134"
           transform="matrix(0,-1,1,0,0,0)"
           clip-path="url(#clip_rect_4)"
           id="line48"
           style="stroke:#000000;stroke-width:1" />
        <line
           x1="238"
           y1="134"
           x2="232"
           y2="140"
           transform="matrix(0,-1,1,0,0,0)"
           clip-path="url(#clip_rect_4)"
           id="line50"
           style="stroke:#000000;stroke-width:1" />
        <rect
           x="220"
           y="122"
           width="30"
           height="31"
           transform="matrix(0,-1,1,0,0,0)"
           id="rect52"
           style="fill:none;stroke:#000000;stroke-width:1" />
        <rect
           x="115"
           y="167"
           width="30"
           height="31"
           transform="matrix(0,-1,1,0,0,0)"
           id="rect54"
           style="fill:#ffffff;stroke:none" />
        <text
           x="112"
           y="210"
           font-size="10"
           transform="matrix(0,-1,1,0,0,0)"
           id="text56"
           style="font-size:10px;fill:#000000;stroke:none;font-family:Helvetica">Product</text>
        <line
           x1="133"
           y1="185"
           x2="127"
           y2="179"
           transform="matrix(0,-1,1,0,0,0)"
           clip-path="url(#clip_rect_5)"
           id="line58"
           style="stroke:#000000;stroke-width:1" />
        <line
           x1="133"
           y1="179"
           x2="127"
           y2="185"
           transform="matrix(0,-1,1,0,0,0)"
           clip-path="url(#clip_rect_5)"
           id="line60"
           style="stroke:#000000;stroke-width:1" />
        <rect
           x="115"
           y="167"
           width="30"
           height="31"
           transform="matrix(0,-1,1,0,0,0)"
           id="rect62"
           style="fill:none;stroke:#000000;stroke-width:1" />
        <rect
           x="165"
           y="150"
           width="30"
           height="30"
           transform="matrix(0,-1,1,0,0,0)"
           id="rect64"
           style="fill:#e8d152;stroke:none" />
        <text
           x="156"
           y="192"
           font-size="10"
           transform="matrix(0,-1,1,0,0,0)"
           id="text66"
           style="font-size:10px;fill:#000000;stroke:none;font-family:Helvetica">Constant2</text>
        <text
           x="172.5"
           y="169.5"
           font-size="10"
           transform="matrix(0,-1,1,0,0,0)"
           clip-path="url(#clip_rect_6)"
           id="text68"
           style="font-size:10px;fill:#000000;stroke:none;font-family:Helvetica">1.0</text>
        <rect
           x="165"
           y="150"
           width="30"
           height="30"
           transform="matrix(0,-1,1,0,0,0)"
           id="rect70"
           style="fill:none;stroke:#000000;stroke-width:1" />
        <rect
           x="30"
           y="102"
           width="45"
           height="36"
           transform="matrix(0,-1,1,0,0,0)"
           id="rect72"
           style="fill:#ffffff;stroke:none" />
        <text
           x="31"
           y="150"
           font-size="10"
           transform="matrix(0,-1,1,0,0,0)"
           id="text74"
           style="font-size:10px;fill:#000000;stroke:none;font-family:Helvetica">Constant</text>
        <text
           x="38.5"
           y="124.5"
           font-size="10"
           transform="matrix(0,-1,1,0,0,0)"
           clip-path="url(#clip_rect_7)"
           id="text76"
           style="font-size:10px;fill:#000000;stroke:none;font-family:Helvetica">12.34</text>
        <rect
           x="30"
           y="102"
           width="45"
           height="36"
           transform="matrix(0,-1,1,0,0,0)"
           id="rect78"
           style="fill:none;stroke:#000000;stroke-width:1" />
        <rect
           x="40"
           y="183"
           width="30"
           height="14"
           rx="6.7741899"
           ry="6.7741899"
           transform="matrix(0,-1,1,0,0,0)"
           id="rect80"
           style="fill:#ffffff;stroke:none" />
        <rect
           x="40"
           y="183"
           width="30"
           height="14"
           rx="6.7741899"
           ry="6.7741899"
           transform="matrix(0,-1,1,0,0,0)"
           id="rect82"
           style="fill:none;stroke:#000000;stroke-width:1" />
        <text
           x="47.5"
           y="209"
           font-size="10"
           transform="matrix(0,-1,1,0,0,0)"
           id="text84"
           style="font-size:10px;fill:#000000;stroke:none;font-family:Helvetica">In1</text>
        <text
           x="52"
           y="194.5"
           font-size="10"
           transform="matrix(0,-1,1,0,0,0)"
           clip-path="url(#clip_rect_8)"
           id="text86"
           style="font-size:10px;fill:#000000;stroke:none;font-family:Helvetica">1</text>
        <line
           x1="215"
           y1="130"
           x2="205"
           y2="130"
           transform="matrix(0,-1,1,0,0,0)"
           id="line88"
           style="stroke:#000000;stroke-width:1" />
        <polygon
           points="210,135 220,130 210,125 210,125 "
           transform="matrix(0,-1,1,0,0,0)"
           id="polygon90"
           style="fill:#000000;stroke:none" />
        <polyline
           points="150,165 150,130 205,130 207,130 "
           transform="matrix(0,-1,1,0,0,0)"
           id="polyline92"
           style="fill:none;stroke:#000000;stroke-width:1" />
        <line
           x1="330"
           y1="150"
           x2="330"
           y2="160"
           transform="matrix(0,-1,1,0,0,0)"
           id="line94"
           style="stroke:#000000;stroke-width:1" />
        <polygon
           points="335,155 330,145 325,155 325,155 "
           transform="matrix(0,-1,1,0,0,0)"
           id="polygon96"
           style="fill:#000000;stroke:none" />
        <polyline
           points="150,165 150,205 330,205 330,160 330,158 "
           transform="matrix(0,-1,1,0,0,0)"
           id="polyline98"
           style="fill:none;stroke:#000000;stroke-width:1" />
        <line
           x1="145"
           y1="185"
           x2="150"
           y2="185"
           transform="matrix(0,-1,1,0,0,0)"
           id="line100"
           style="stroke:#000000;stroke-width:1" />
        <polyline
           points="148,185 150,185 150,165 "
           transform="matrix(0,-1,1,0,0,0)"
           id="polyline102"
           style="fill:none;stroke:#000000;stroke-width:1" />
        <rect
           x="149"
           y="164"
           width="2"
           height="2"
           transform="matrix(0,-1,1,0,0,0)"
           id="rect104"
           style="fill:#000000;stroke:none" />
        <rect
           x="149"
           y="164"
           width="2"
           height="2"
           transform="matrix(0,-1,1,0,0,0)"
           id="rect106"
           style="fill:none;stroke:#000000;stroke-width:1" />
        <line
           x1="110"
           y1="175"
           x2="100"
           y2="175"
           transform="matrix(0,-1,1,0,0,0)"
           id="line108"
           style="stroke:#000000;stroke-width:1" />
        <polygon
           points="105,180 115,175 105,170 105,170 "
           transform="matrix(0,-1,1,0,0,0)"
           id="polygon110"
           style="fill:#000000;stroke:none" />
        <polyline
           points="75,120 90,120 90,175 100,175 102,175 "
           transform="matrix(0,-1,1,0,0,0)"
           id="polyline112"
           style="fill:none;stroke:#000000;stroke-width:1" />
        <line
           x1="285"
           y1="120"
           x2="285"
           y2="110"
           transform="matrix(0,-1,1,0,0,0)"
           id="line114"
           style="stroke:#000000;stroke-width:1" />
        <polygon
           points="280,115 285,125 290,115 290,115 "
           transform="matrix(0,-1,1,0,0,0)"
           id="polygon116"
           style="fill:#000000;stroke:none" />
        <polyline
           points="75,120 150,120 150,110 285,110 285,112 "
           transform="matrix(0,-1,1,0,0,0)"
           id="polyline118"
           style="fill:none;stroke:#000000;stroke-width:1" />
        <line
           x1="75"
           y1="120"
           x2="80"
           y2="120"
           transform="matrix(0,-1,1,0,0,0)"
           id="line120"
           style="stroke:#000000;stroke-width:1" />
        <polyline
           points="78,120 80,120 75,120 "
           transform="matrix(0,-1,1,0,0,0)"
           id="polyline122"
           style="fill:none;stroke:#000000;stroke-width:1" />
        <rect
           x="74"
           y="119"
           width="2"
           height="2"
           transform="matrix(0,-1,1,0,0,0)"
           id="rect124"
           style="fill:#000000;stroke:none" />
        <rect
           x="74"
           y="119"
           width="2"
           height="2"
           transform="matrix(0,-1,1,0,0,0)"
           id="rect126"
           style="fill:none;stroke:#000000;stroke-width:1" />
        <line
           x1="195"
           y1="165"
           x2="200"
           y2="165"
           transform="matrix(0,-1,1,0,0,0)"
           id="line128"
           style="stroke:#000000;stroke-width:1" />
        <line
           x1="215"
           y1="145"
           x2="205"
           y2="145"
           transform="matrix(0,-1,1,0,0,0)"
           id="line130"
           style="stroke:#000000;stroke-width:1" />
        <polygon
           points="210,150 220,145 210,140 210,140 "
           transform="matrix(0,-1,1,0,0,0)"
           id="polygon132"
           style="fill:#000000;stroke:none" />
        <polyline
           points="198,165 200,165 205,165 205,145 207,145 "
           transform="matrix(0,-1,1,0,0,0)"
           id="polyline134"
           style="fill:none;stroke:#000000;stroke-width:1" />
        <line
           x1="340"
           y1="135"
           x2="345"
           y2="135"
           transform="matrix(0,-1,1,0,0,0)"
           id="line136"
           style="stroke:#000000;stroke-width:1" />
        <line
           x1="360"
           y1="135"
           x2="350"
           y2="135"
           transform="matrix(0,-1,1,0,0,0)"
           id="line138"
           style="stroke:#000000;stroke-width:1" />
        <polygon
           points="355,140 365,135 355,130 355,130 "
           transform="matrix(0,-1,1,0,0,0)"
           id="polygon140"
           style="fill:#000000;stroke:none" />
        <polyline
           points="343,135 345,135 350,135 352,135 "
           transform="matrix(0,-1,1,0,0,0)"
           id="polyline142"
           style="fill:none;stroke:#000000;stroke-width:1" />
        <line
           x1="70"
           y1="190"
           x2="75"
           y2="190"
           transform="matrix(0,-1,1,0,0,0)"
           id="line144"
           style="stroke:#000000;stroke-width:1" />
        <line
           x1="110"
           y1="190"
           x2="100"
           y2="190"
           transform="matrix(0,-1,1,0,0,0)"
           id="line146"
           style="stroke:#000000;stroke-width:1" />
        <polygon
           points="105,195 115,190 105,185 105,185 "
           transform="matrix(0,-1,1,0,0,0)"
           id="polygon148"
           style="fill:#000000;stroke:none" />
        <polyline
           points="73,190 75,190 100,190 102,190 "
           transform="matrix(0,-1,1,0,0,0)"
           id="polyline150"
           style="fill:none;stroke:#000000;stroke-width:1" />
        <line
           x1="250"
           y1="140"
           x2="255"
           y2="140"
           transform="matrix(0,-1,1,0,0,0)"
           id="line152"
           style="stroke:#000000;stroke-width:1" />
        <line
           x1="270"
           y1="135"
           x2="260"
           y2="135"
           transform="matrix(0,-1,1,0,0,0)"
           id="line154"
           style="stroke:#000000;stroke-width:1" />
        <polygon
           points="265,140 275,135 265,130 265,130 "
           transform="matrix(0,-1,1,0,0,0)"
           id="polygon156"
           style="fill:#000000;stroke:none" />
        <polyline
           points="253,140 255,140 255,135 260,135 262,135 "
           transform="matrix(0,-1,1,0,0,0)"
           id="polyline158"
           style="fill:none;stroke:#000000;stroke-width:1" />
        <line
           x1="295"
           y1="135"
           x2="300"
           y2="135"
           transform="matrix(0,-1,1,0,0,0)"
           id="line160"
           style="stroke:#000000;stroke-width:1" />
        <line
           x1="315"
           y1="135"
           x2="305"
           y2="135"
           transform="matrix(0,-1,1,0,0,0)"
           id="line162"
           style="stroke:#000000;stroke-width:1" />
        <polygon
           points="310,140 320,135 310,130 310,130 "
           transform="matrix(0,-1,1,0,0,0)"
           id="polygon164"
           style="fill:#000000;stroke:none" />
        <polyline
           points="298,135 300,135 305,135 307,135 "
           transform="matrix(0,-1,1,0,0,0)"
           id="polyline166"
           style="fill:none;stroke:#000000;stroke-width:1" />
      </g>
    </g>
  </g>
  <g
     transform="matrix(0,1,-1,0,379,379)"
     id="g168">
    <g
       id="g170" />
  </g>
  <defs
     id="defs172">
    <clipPath
       id="clip_rect_0">
      <rect
         x="4"
         y="4"
         width="112"
         height="369"
         id="rect175" />
    </clipPath>
    <clipPath
       id="clip_rect_1">
      <rect
         x="365"
         y="128"
         width="30"
         height="14"
         id="rect178" />
    </clipPath>
    <clipPath
       id="clip_rect_2">
      <rect
         x="275"
         y="125"
         width="20"
         height="20"
         id="rect181" />
    </clipPath>
    <clipPath
       id="clip_rect_3">
      <rect
         x="320"
         y="125"
         width="20"
         height="20"
         id="rect184" />
    </clipPath>
    <clipPath
       id="clip_rect_4">
      <rect
         x="220"
         y="122"
         width="30"
         height="31"
         id="rect187" />
    </clipPath>
    <clipPath
       id="clip_rect_5">
      <rect
         x="115"
         y="167"
         width="30"
         height="31"
         id="rect190" />
    </clipPath>
    <clipPath
       id="clip_rect_6">
      <rect
         x="165"
         y="150"
         width="30"
         height="30"
         id="rect193" />
    </clipPath>
    <clipPath
       id="clip_rect_7">
      <rect
         x="30"
         y="102"
         width="45"
         height="36"
         id="rect196" />
    </clipPath>
    <clipPath
       id="clip_rect_8">
      <rect
         x="40"
         y="183"
         width="30"
         height="14"
         id="rect199" />
    </clipPath>
  </defs>
</svg>
