<?xml version="1.0" encoding="UTF-8" standalone="no"?>
<svg
   xmlns:dc="http://purl.org/dc/elements/1.1/"
   xmlns:cc="http://creativecommons.org/ns#"
   xmlns:rdf="http://www.w3.org/1999/02/22-rdf-syntax-ns#"
   xmlns:svg="http://www.w3.org/2000/svg"
   xmlns="http://www.w3.org/2000/svg"
   xmlns:sodipodi="http://sodipodi.sourceforge.net/DTD/sodipodi-0.dtd"
   xmlns:inkscape="http://www.inkscape.org/namespaces/inkscape"
   width="133"
   height="263"
   viewBox="0 0 133 263"
   id="svg2"
   version="1.1"
   inkscape:version="0.48.4 r9939"
   sodipodi:docname="Flatten1_subsystem.svg">
  <metadata
     id="metadata137">
    <rdf:RDF>
      <cc:Work
         rdf:about="">
        <dc:format>image/svg+xml</dc:format>
        <dc:type
           rdf:resource="http://purl.org/dc/dcmitype/StillImage" />
      </cc:Work>
    </rdf:RDF>
  </metadata>
  <sodipodi:namedview
     pagecolor="#ffffff"
     bordercolor="#666666"
     borderopacity="1"
     objecttolerance="10"
     gridtolerance="10"
     guidetolerance="10"
     inkscape:pageopacity="0"
     inkscape:pageshadow="2"
     inkscape:window-width="640"
     inkscape:window-height="480"
     id="namedview135"
     showgrid="false"
     inkscape:zoom="0.8973384"
     inkscape:cx="66.5"
     inkscape:cy="131.5"
     inkscape:window-x="0"
     inkscape:window-y="0"
     inkscape:window-maximized="0"
     inkscape:current-layer="svg2" />
  <rect
     x="65"
     y="-198"
     width="133"
     height="263"
     id="rect4"
     transform="matrix(0,1,-1,0,0,0)"
     style="fill:#ffffff" />
  <g
     clip-path="url(#clip_rect_0)"
     id="g6"
     transform="matrix(0,1,-1,0,195.375,64.645)">
    <g
       transform="translate(-87,356)"
       id="g8">
      <g
         id="g10">
        <rect
           x="320"
           y="128"
           width="30"
           height="14"
           rx="6.7741899"
           ry="6.7741899"
           transform="matrix(0,-1,1,0,0,0)"
           id="rect12"
           style="fill:#e8d152;stroke:none" />
        <rect
           x="320"
           y="128"
           width="30"
           height="14"
           rx="6.7741899"
           ry="6.7741899"
           transform="matrix(0,-1,1,0,0,0)"
           id="rect14"
           style="fill:none;stroke:#000000;stroke-width:1" />
        <text
           x="323.5"
           y="154"
           font-size="10"
           transform="matrix(0,-1,1,0,0,0)"
           id="text16"
           style="font-size:10px;fill:#000000;stroke:none;font-family:Helvetica">Out1</text>
        <text
           x="332"
           y="139.5"
           font-size="10"
           transform="matrix(0,-1,1,0,0,0)"
           clip-path="url(#clip_rect_1)"
           id="text18"
           style="font-size:10px;fill:#000000;stroke:none;font-family:Helvetica">1</text>
        <ellipse
           cx="285"
           cy="135"
           rx="10"
           ry="10"
           transform="matrix(0,-1,1,0,0,0)"
           id="ellipse20"
           d="m 295,135 c 0,5.52285 -4.47715,10 -10,10 -5.52285,0 -10,-4.47715 -10,-10 0,-5.52285 4.47715,-10 10,-10 5.52285,0 10,4.47715 10,10 z"
           sodipodi:cx="285"
           sodipodi:cy="135"
           sodipodi:rx="10"
           sodipodi:ry="10"
           style="fill:#e8d152;stroke:none" />
        <ellipse
           cx="285"
           cy="135"
           rx="10"
           ry="10"
           transform="matrix(0,-1,1,0,0,0)"
           id="ellipse22"
           d="m 295,135 c 0,5.52285 -4.47715,10 -10,10 -5.52285,0 -10,-4.47715 -10,-10 0,-5.52285 4.47715,-10 10,-10 5.52285,0 10,4.47715 10,10 z"
           sodipodi:cx="285"
           sodipodi:cy="135"
           sodipodi:rx="10"
           sodipodi:ry="10"
           style="fill:none;stroke:#000000;stroke-width:1" />
        <text
           x="271.5"
           y="157"
           font-size="10"
           transform="matrix(0,-1,1,0,0,0)"
           id="text24"
           style="font-size:10px;fill:#000000;stroke:none;font-family:Helvetica">Sum2</text>
        <line
           x1="283"
           y1="130"
           x2="287"
           y2="130"
           transform="matrix(0,-1,1,0,0,0)"
           clip-path="url(#clip_rect_2)"
           id="line26"
           style="stroke:#000000;stroke-width:1" />
        <line
           x1="285"
           y1="128"
           x2="285"
           y2="132"
           transform="matrix(0,-1,1,0,0,0)"
           clip-path="url(#clip_rect_2)"
           id="line28"
           style="stroke:#000000;stroke-width:1" />
        <line
           x1="278"
           y1="135"
           x2="282"
           y2="135"
           transform="matrix(0,-1,1,0,0,0)"
           clip-path="url(#clip_rect_2)"
           id="line30"
           style="stroke:#000000;stroke-width:1" />
        <line
           x1="280"
           y1="133"
           x2="280"
           y2="137"
           transform="matrix(0,-1,1,0,0,0)"
           clip-path="url(#clip_rect_2)"
           id="line32"
           style="stroke:#000000;stroke-width:1" />
        <rect
           x="210"
           y="117"
           width="30"
           height="31"
           transform="matrix(0,-1,1,0,0,0)"
           id="rect34"
           style="fill:#e8d152;stroke:none" />
        <text
           x="204"
           y="160"
           font-size="10"
           transform="matrix(0,-1,1,0,0,0)"
           id="text36"
           style="font-size:10px;fill:#000000;stroke:none;font-family:Helvetica">Product2</text>
        <line
           x1="228"
           y1="135"
           x2="222"
           y2="129"
           transform="matrix(0,-1,1,0,0,0)"
           clip-path="url(#clip_rect_3)"
           id="line38"
           style="stroke:#000000;stroke-width:1" />
        <line
           x1="228"
           y1="129"
           x2="222"
           y2="135"
           transform="matrix(0,-1,1,0,0,0)"
           clip-path="url(#clip_rect_3)"
           id="line40"
           style="stroke:#000000;stroke-width:1" />
        <rect
           x="210"
           y="117"
           width="30"
           height="31"
           transform="matrix(0,-1,1,0,0,0)"
           id="rect42"
           style="fill:none;stroke:#000000;stroke-width:1" />
        <rect
           x="110"
           y="170"
           width="30"
           height="30"
           transform="matrix(0,-1,1,0,0,0)"
           id="rect44"
           style="fill:#e8d152;stroke:none" />
        <text
           x="101"
           y="212"
           font-size="10"
           transform="matrix(0,-1,1,0,0,0)"
           id="text46"
           style="font-size:10px;fill:#000000;stroke:none;font-family:Helvetica">Constant2</text>
        <text
           x="122"
           y="189.5"
           font-size="10"
           transform="matrix(0,-1,1,0,0,0)"
           clip-path="url(#clip_rect_4)"
           id="text48"
           style="font-size:10px;fill:#000000;stroke:none;font-family:Helvetica">1</text>
        <rect
           x="110"
           y="170"
           width="30"
           height="30"
           transform="matrix(0,-1,1,0,0,0)"
           id="rect50"
           style="fill:none;stroke:#000000;stroke-width:1" />
        <rect
           x="110"
           y="133"
           width="30"
           height="14"
           rx="6.7741899"
           ry="6.7741899"
           transform="matrix(0,-1,1,0,0,0)"
           id="rect52"
           style="fill:#e8d152;stroke:none" />
        <rect
           x="110"
           y="133"
           width="30"
           height="14"
           rx="6.7741899"
           ry="6.7741899"
           transform="matrix(0,-1,1,0,0,0)"
           id="rect54"
           style="fill:none;stroke:#000000;stroke-width:1" />
        <text
           x="117.5"
           y="159"
           font-size="10"
           transform="matrix(0,-1,1,0,0,0)"
           id="text56"
           style="font-size:10px;fill:#000000;stroke:none;font-family:Helvetica">In2</text>
        <text
           x="122"
           y="144.5"
           font-size="10"
           transform="matrix(0,-1,1,0,0,0)"
           clip-path="url(#clip_rect_5)"
           id="text58"
           style="font-size:10px;fill:#000000;stroke:none;font-family:Helvetica">2</text>
        <rect
           x="115"
           y="93"
           width="30"
           height="14"
           rx="6.7741899"
           ry="6.7741899"
           transform="matrix(0,-1,1,0,0,0)"
           id="rect60"
           style="fill:#e8d152;stroke:none" />
        <rect
           x="115"
           y="93"
           width="30"
           height="14"
           rx="6.7741899"
           ry="6.7741899"
           transform="matrix(0,-1,1,0,0,0)"
           id="rect62"
           style="fill:none;stroke:#000000;stroke-width:1" />
        <text
           x="122.5"
           y="119"
           font-size="10"
           transform="matrix(0,-1,1,0,0,0)"
           id="text64"
           style="font-size:10px;fill:#000000;stroke:none;font-family:Helvetica">In1</text>
        <text
           x="127"
           y="104.5"
           font-size="10"
           transform="matrix(0,-1,1,0,0,0)"
           clip-path="url(#clip_rect_6)"
           id="text66"
           style="font-size:10px;fill:#000000;stroke:none;font-family:Helvetica">1</text>
        <line
           x1="140"
           y1="140"
           x2="145"
           y2="140"
           transform="matrix(0,-1,1,0,0,0)"
           id="line68"
           style="stroke:#000000;stroke-width:1" />
        <line
           x1="205"
           y1="125"
           x2="195"
           y2="125"
           transform="matrix(0,-1,1,0,0,0)"
           id="line70"
           style="stroke:#000000;stroke-width:1" />
        <polygon
           points="200,130 210,125 200,120 200,120 "
           transform="matrix(0,-1,1,0,0,0)"
           id="polygon72"
           style="fill:#000000;stroke:none" />
        <polyline
           points="143,140 145,140 175,140 175,125 195,125 197,125 "
           transform="matrix(0,-1,1,0,0,0)"
           id="polyline74"
           style="fill:none;stroke:#000000;stroke-width:1" />
        <line
           x1="140"
           y1="185"
           x2="145"
           y2="185"
           transform="matrix(0,-1,1,0,0,0)"
           id="line76"
           style="stroke:#000000;stroke-width:1" />
        <line
           x1="205"
           y1="140"
           x2="195"
           y2="140"
           transform="matrix(0,-1,1,0,0,0)"
           id="line78"
           style="stroke:#000000;stroke-width:1" />
        <polygon
           points="200,145 210,140 200,135 200,135 "
           transform="matrix(0,-1,1,0,0,0)"
           id="polygon80"
           style="fill:#000000;stroke:none" />
        <polyline
           points="143,185 145,185 190,185 190,140 195,140 197,140 "
           transform="matrix(0,-1,1,0,0,0)"
           id="polyline82"
           style="fill:none;stroke:#000000;stroke-width:1" />
        <line
           x1="145"
           y1="100"
           x2="150"
           y2="100"
           transform="matrix(0,-1,1,0,0,0)"
           id="line84"
           style="stroke:#000000;stroke-width:1" />
        <line
           x1="285"
           y1="120"
           x2="285"
           y2="110"
           transform="matrix(0,-1,1,0,0,0)"
           id="line86"
           style="stroke:#000000;stroke-width:1" />
        <polygon
           points="280,115 285,125 290,115 290,115 "
           transform="matrix(0,-1,1,0,0,0)"
           id="polygon88"
           style="fill:#000000;stroke:none" />
        <polyline
           points="148,100 150,100 150,110 285,110 285,112 "
           transform="matrix(0,-1,1,0,0,0)"
           id="polyline90"
           style="fill:none;stroke:#000000;stroke-width:1" />
        <line
           x1="240"
           y1="135"
           x2="245"
           y2="135"
           transform="matrix(0,-1,1,0,0,0)"
           id="line92"
           style="stroke:#000000;stroke-width:1" />
        <line
           x1="270"
           y1="135"
           x2="260"
           y2="135"
           transform="matrix(0,-1,1,0,0,0)"
           id="line94"
           style="stroke:#000000;stroke-width:1" />
        <polygon
           points="265,140 275,135 265,130 265,130 "
           transform="matrix(0,-1,1,0,0,0)"
           id="polygon96"
           style="fill:#000000;stroke:none" />
        <polyline
           points="243,135 245,135 260,135 262,135 "
           transform="matrix(0,-1,1,0,0,0)"
           id="polyline98"
           style="fill:none;stroke:#000000;stroke-width:1" />
        <line
           x1="295"
           y1="135"
           x2="300"
           y2="135"
           transform="matrix(0,-1,1,0,0,0)"
           id="line100"
           style="stroke:#000000;stroke-width:1" />
        <line
           x1="315"
           y1="135"
           x2="305"
           y2="135"
           transform="matrix(0,-1,1,0,0,0)"
           id="line102"
           style="stroke:#000000;stroke-width:1" />
        <polygon
           points="310,140 320,135 310,130 310,130 "
           transform="matrix(0,-1,1,0,0,0)"
           id="polygon104"
           style="fill:#000000;stroke:none" />
        <polyline
           points="298,135 300,135 305,135 307,135 "
           transform="matrix(0,-1,1,0,0,0)"
           id="polyline106"
           style="fill:none;stroke:#000000;stroke-width:1" />
      </g>
    </g>
  </g>
  <g
     transform="matrix(0,1,-1,0,263,263)"
     id="g108">
    <g
       id="g110" />
  </g>
  <defs
     id="defs112">
    <clipPath
       id="clip_rect_0">
      <rect
         x="4"
         y="4"
         width="123"
         height="253"
         id="rect115" />
    </clipPath>
    <clipPath
       id="clip_rect_1">
      <rect
         x="320"
         y="128"
         width="30"
         height="14"
         id="rect118" />
    </clipPath>
    <clipPath
       id="clip_rect_2">
      <rect
         x="275"
         y="125"
         width="20"
         height="20"
         id="rect121" />
    </clipPath>
    <clipPath
       id="clip_rect_3">
      <rect
         x="210"
         y="117"
         width="30"
         height="31"
         id="rect124" />
    </clipPath>
    <clipPath
       id="clip_rect_4">
      <rect
         x="110"
         y="170"
         width="30"
         height="30"
         id="rect127" />
    </clipPath>
    <clipPath
       id="clip_rect_5">
      <rect
         x="110"
         y="133"
         width="30"
         height="14"
         id="rect130" />
    </clipPath>
    <clipPath
       id="clip_rect_6">
      <rect
         x="115"
         y="93"
         width="30"
         height="14"
         id="rect133" />
    </clipPath>
  </defs>
</svg>
