<?xml version="1.0" encoding="UTF-8" standalone="no"?>
<svg
   xmlns:dc="http://purl.org/dc/elements/1.1/"
   xmlns:cc="http://creativecommons.org/ns#"
   xmlns:rdf="http://www.w3.org/1999/02/22-rdf-syntax-ns#"
   xmlns:svg="http://www.w3.org/2000/svg"
   xmlns="http://www.w3.org/2000/svg"
   xmlns:sodipodi="http://sodipodi.sourceforge.net/DTD/sodipodi-0.dtd"
   xmlns:inkscape="http://www.inkscape.org/namespaces/inkscape"
   width="146"
   height="269"
   viewBox="0 0 146 269"
   id="svg2"
   version="1.1"
   inkscape:version="0.48.4 r9939"
   sodipodi:docname="HSimpleConstDead.svg">
  <metadata
     id="metadata141">
    <rdf:RDF>
      <cc:Work
         rdf:about="">
        <dc:format>image/svg+xml</dc:format>
        <dc:type
           rdf:resource="http://purl.org/dc/dcmitype/StillImage" />
      </cc:Work>
    </rdf:RDF>
  </metadata>
  <sodipodi:namedview
     pagecolor="#ffffff"
     bordercolor="#666666"
     borderopacity="1"
     objecttolerance="10"
     gridtolerance="10"
     guidetolerance="10"
     inkscape:pageopacity="0"
     inkscape:pageshadow="2"
     inkscape:window-width="640"
     inkscape:window-height="480"
     id="namedview139"
     showgrid="false"
     inkscape:zoom="0.87732342"
     inkscape:cx="73"
     inkscape:cy="134.5"
     inkscape:window-x="0"
     inkscape:window-y="0"
     inkscape:window-maximized="0"
     inkscape:current-layer="svg2" />
  <rect
     x="61.5"
     y="-207.5"
     width="146"
     height="269"
     id="rect4"
     transform="matrix(0,1,-1,0,0,0)"
     style="fill:#ffffff" />
  <g
     clip-path="url(#clip_rect_0)"
     id="g6"
     transform="matrix(0,1,-1,0,205.365,61.635)">
    <g
       transform="translate(-76,311)"
       id="g8">
      <g
         id="g10">
        <rect
           x="275"
           y="133"
           width="30"
           height="14"
           rx="6.7741899"
           ry="6.7741899"
           transform="matrix(0,-1,1,0,0,0)"
           id="rect12"
           style="fill:#ffffff;stroke:none" />
        <rect
           x="275"
           y="133"
           width="30"
           height="14"
           rx="6.7741899"
           ry="6.7741899"
           transform="matrix(0,-1,1,0,0,0)"
           id="rect14"
           style="fill:none;stroke:#000000;stroke-width:1" />
        <text
           x="278.5"
           y="159"
           font-size="10"
           transform="matrix(0,-1,1,0,0,0)"
           id="text16"
           style="font-size:10px;fill:#000000;stroke:none;font-family:Helvetica">Out1</text>
        <text
           x="287"
           y="144.5"
           font-size="10"
           transform="matrix(0,-1,1,0,0,0)"
           clip-path="url(#clip_rect_1)"
           id="text18"
           style="font-size:10px;fill:#000000;stroke:none;font-family:Helvetica">1</text>
        <ellipse
           cx="150"
           cy="130"
           rx="10"
           ry="10"
           transform="matrix(0,-1,1,0,0,0)"
           id="ellipse20"
           d="m 160,130 c 0,5.52285 -4.47715,10 -10,10 -5.52285,0 -10,-4.47715 -10,-10 0,-5.52285 4.47715,-10 10,-10 5.52285,0 10,4.47715 10,10 z"
           sodipodi:cx="150"
           sodipodi:cy="130"
           sodipodi:rx="10"
           sodipodi:ry="10"
           style="fill:#ffa7aa;stroke:none" />
        <ellipse
           cx="150"
           cy="130"
           rx="10"
           ry="10"
           transform="matrix(0,-1,1,0,0,0)"
           id="ellipse22"
           d="m 160,130 c 0,5.52285 -4.47715,10 -10,10 -5.52285,0 -10,-4.47715 -10,-10 0,-5.52285 4.47715,-10 10,-10 5.52285,0 10,4.47715 10,10 z"
           sodipodi:cx="150"
           sodipodi:cy="130"
           sodipodi:rx="10"
           sodipodi:ry="10"
           style="fill:none;stroke:#000000;stroke-width:1" />
        <polyline
           points="160,127 164,130 160,133 "
           transform="matrix(0,-1,1,0,0,0)"
           id="polyline24"
           style="fill:none;stroke:#000000;stroke-width:1" />
        <line
           x1="143"
           y1="130"
           x2="147"
           y2="130"
           transform="matrix(0,-1,1,0,0,0)"
           clip-path="url(#clip_rect_2)"
           id="line26"
           style="stroke:#000000;stroke-width:1" />
        <line
           x1="145"
           y1="128"
           x2="145"
           y2="132"
           transform="matrix(0,-1,1,0,0,0)"
           clip-path="url(#clip_rect_2)"
           id="line28"
           style="stroke:#000000;stroke-width:1" />
        <line
           x1="148"
           y1="135"
           x2="152"
           y2="135"
           transform="matrix(0,-1,1,0,0,0)"
           clip-path="url(#clip_rect_2)"
           id="line30"
           style="stroke:#000000;stroke-width:1" />
        <line
           x1="150"
           y1="133"
           x2="150"
           y2="137"
           transform="matrix(0,-1,1,0,0,0)"
           clip-path="url(#clip_rect_2)"
           id="line32"
           style="stroke:#000000;stroke-width:1" />
        <rect
           x="215"
           y="122"
           width="30"
           height="31"
           transform="matrix(0,-1,1,0,0,0)"
           id="rect34"
           style="fill:#ffffff;stroke:none" />
        <text
           x="212"
           y="165"
           font-size="10"
           transform="matrix(0,-1,1,0,0,0)"
           id="text36"
           style="font-size:10px;fill:#000000;stroke:none;font-family:Helvetica">Product</text>
        <line
           x1="233"
           y1="140"
           x2="227"
           y2="134"
           transform="matrix(0,-1,1,0,0,0)"
           clip-path="url(#clip_rect_3)"
           id="line38"
           style="stroke:#000000;stroke-width:1" />
        <line
           x1="233"
           y1="134"
           x2="227"
           y2="140"
           transform="matrix(0,-1,1,0,0,0)"
           clip-path="url(#clip_rect_3)"
           id="line40"
           style="stroke:#000000;stroke-width:1" />
        <rect
           x="215"
           y="122"
           width="30"
           height="31"
           transform="matrix(0,-1,1,0,0,0)"
           id="rect42"
           style="fill:none;stroke:#000000;stroke-width:1" />
        <rect
           x="50"
           y="82"
           width="55"
           height="36"
           transform="matrix(0,-1,1,0,0,0)"
           id="rect44"
           style="fill:#ffffff;stroke:none" />
        <text
           x="53"
           y="130"
           font-size="10"
           transform="matrix(0,-1,1,0,0,0)"
           id="text46"
           style="font-size:10px;fill:#000000;stroke:none;font-family:Helvetica">Constant2</text>
        <text
           x="60.5"
           y="104.5"
           font-size="10"
           transform="matrix(0,-1,1,0,0,0)"
           clip-path="url(#clip_rect_4)"
           id="text48"
           style="font-size:10px;fill:#000000;stroke:none;font-family:Helvetica">433.22</text>
        <rect
           x="50"
           y="82"
           width="55"
           height="36"
           transform="matrix(0,-1,1,0,0,0)"
           id="rect50"
           style="fill:none;stroke:#000000;stroke-width:1" />
        <rect
           x="85"
           y="168"
           width="50"
           height="34"
           transform="matrix(0,-1,1,0,0,0)"
           id="rect52"
           style="fill:#ffa7aa;stroke:none" />
        <text
           x="86"
           y="214"
           font-size="10"
           transform="matrix(0,-1,1,0,0,0)"
           id="text54"
           style="font-size:10px;fill:#000000;stroke:none;font-family:Helvetica">Constant1</text>
        <text
           x="93.5"
           y="189.5"
           font-size="10"
           transform="matrix(0,-1,1,0,0,0)"
           clip-path="url(#clip_rect_5)"
           id="text56"
           style="font-size:10px;fill:#000000;stroke:none;font-family:Helvetica">112.32</text>
        <rect
           x="85"
           y="168"
           width="50"
           height="34"
           transform="matrix(0,-1,1,0,0,0)"
           id="rect58"
           style="fill:none;stroke:#000000;stroke-width:1" />
        <rect
           x="170"
           y="173"
           width="30"
           height="14"
           rx="6.7741899"
           ry="6.7741899"
           transform="matrix(0,-1,1,0,0,0)"
           id="rect60"
           style="fill:#ffffff;stroke:none" />
        <rect
           x="170"
           y="173"
           width="30"
           height="14"
           rx="6.7741899"
           ry="6.7741899"
           transform="matrix(0,-1,1,0,0,0)"
           id="rect62"
           style="fill:none;stroke:#000000;stroke-width:1" />
        <text
           x="177.5"
           y="199"
           font-size="10"
           transform="matrix(0,-1,1,0,0,0)"
           id="text64"
           style="font-size:10px;fill:#000000;stroke:none;font-family:Helvetica">In1</text>
        <text
           x="182"
           y="184.5"
           font-size="10"
           transform="matrix(0,-1,1,0,0,0)"
           clip-path="url(#clip_rect_6)"
           id="text66"
           style="font-size:10px;fill:#000000;stroke:none;font-family:Helvetica">1</text>
        <line
           x1="135"
           y1="185"
           x2="140"
           y2="185"
           transform="matrix(0,-1,1,0,0,0)"
           id="line68"
           style="stroke:#000000;stroke-width:1" />
        <line
           x1="150"
           y1="145"
           x2="150"
           y2="155"
           transform="matrix(0,-1,1,0,0,0)"
           id="line70"
           style="stroke:#000000;stroke-width:1" />
        <polygon
           points="155,150 150,140 145,150 145,150 "
           transform="matrix(0,-1,1,0,0,0)"
           id="polygon72"
           style="fill:#000000;stroke:none" />
        <polyline
           points="138,185 140,185 155,185 155,155 150,155 150,153 "
           transform="matrix(0,-1,1,0,0,0)"
           id="polyline74"
           style="fill:none;stroke:#000000;stroke-width:1" />
        <line
           x1="200"
           y1="180"
           x2="205"
           y2="180"
           transform="matrix(0,-1,1,0,0,0)"
           id="line76"
           style="stroke:#000000;stroke-width:1" />
        <line
           x1="210"
           y1="145"
           x2="200"
           y2="145"
           transform="matrix(0,-1,1,0,0,0)"
           id="line78"
           style="stroke:#000000;stroke-width:1" />
        <polygon
           points="205,150 215,145 205,140 205,140 "
           transform="matrix(0,-1,1,0,0,0)"
           id="polygon80"
           style="fill:#000000;stroke:none" />
        <polyline
           points="203,180 205,180 205,160 200,160 200,145 202,145 "
           transform="matrix(0,-1,1,0,0,0)"
           id="polyline82"
           style="fill:none;stroke:#000000;stroke-width:1" />
        <line
           x1="245"
           y1="140"
           x2="250"
           y2="140"
           transform="matrix(0,-1,1,0,0,0)"
           id="line84"
           style="stroke:#000000;stroke-width:1" />
        <line
           x1="270"
           y1="140"
           x2="260"
           y2="140"
           transform="matrix(0,-1,1,0,0,0)"
           id="line86"
           style="stroke:#000000;stroke-width:1" />
        <polygon
           points="265,145 275,140 265,135 265,135 "
           transform="matrix(0,-1,1,0,0,0)"
           id="polygon88"
           style="fill:#000000;stroke:none" />
        <polyline
           points="248,140 250,140 260,140 262,140 "
           transform="matrix(0,-1,1,0,0,0)"
           id="polyline90"
           style="fill:none;stroke:#000000;stroke-width:1" />
        <line
           x1="210"
           y1="130"
           x2="200"
           y2="130"
           transform="matrix(0,-1,1,0,0,0)"
           id="line92"
           style="stroke:#000000;stroke-width:1" />
        <polygon
           points="205,135 215,130 205,125 205,125 "
           transform="matrix(0,-1,1,0,0,0)"
           id="polygon94"
           style="fill:#000000;stroke:none" />
        <polyline
           points="115,100 115,105 195,105 195,130 200,130 202,130 "
           transform="matrix(0,-1,1,0,0,0)"
           id="polyline96"
           style="fill:none;stroke:#000000;stroke-width:1" />
        <line
           x1="135"
           y1="130"
           x2="125"
           y2="130"
           transform="matrix(0,-1,1,0,0,0)"
           id="line98"
           style="stroke:#000000;stroke-width:1" />
        <polygon
           points="130,135 140,130 130,125 130,125 "
           transform="matrix(0,-1,1,0,0,0)"
           id="polygon100"
           style="fill:#000000;stroke:none" />
        <polyline
           points="115,100 115,130 125,130 127,130 "
           transform="matrix(0,-1,1,0,0,0)"
           id="polyline102"
           style="fill:none;stroke:#000000;stroke-width:1" />
        <line
           x1="105"
           y1="100"
           x2="110"
           y2="100"
           transform="matrix(0,-1,1,0,0,0)"
           id="line104"
           style="stroke:#000000;stroke-width:1" />
        <polyline
           points="108,100 110,100 115,100 "
           transform="matrix(0,-1,1,0,0,0)"
           id="polyline106"
           style="fill:none;stroke:#000000;stroke-width:1" />
        <rect
           x="114"
           y="99"
           width="2"
           height="2"
           transform="matrix(0,-1,1,0,0,0)"
           id="rect108"
           style="fill:#000000;stroke:none" />
        <rect
           x="114"
           y="99"
           width="2"
           height="2"
           transform="matrix(0,-1,1,0,0,0)"
           id="rect110"
           style="fill:none;stroke:#000000;stroke-width:1" />
      </g>
    </g>
  </g>
  <g
     transform="matrix(0,1,-1,0,269,269)"
     id="g112">
    <g
       id="g114" />
  </g>
  <defs
     id="defs116">
    <clipPath
       id="clip_rect_0">
      <rect
         x="4"
         y="4"
         width="136"
         height="259"
         id="rect119" />
    </clipPath>
    <clipPath
       id="clip_rect_1">
      <rect
         x="275"
         y="133"
         width="30"
         height="14"
         id="rect122" />
    </clipPath>
    <clipPath
       id="clip_rect_2">
      <rect
         x="140"
         y="120"
         width="20"
         height="20"
         id="rect125" />
    </clipPath>
    <clipPath
       id="clip_rect_3">
      <rect
         x="215"
         y="122"
         width="30"
         height="31"
         id="rect128" />
    </clipPath>
    <clipPath
       id="clip_rect_4">
      <rect
         x="50"
         y="82"
         width="55"
         height="36"
         id="rect131" />
    </clipPath>
    <clipPath
       id="clip_rect_5">
      <rect
         x="85"
         y="168"
         width="50"
         height="34"
         id="rect134" />
    </clipPath>
    <clipPath
       id="clip_rect_6">
      <rect
         x="170"
         y="173"
         width="30"
         height="14"
         id="rect137" />
    </clipPath>
  </defs>
</svg>
