<?xml version="1.0" encoding="UTF-8" standalone="no"?>
<svg
   xmlns:dc="http://purl.org/dc/elements/1.1/"
   xmlns:cc="http://creativecommons.org/ns#"
   xmlns:rdf="http://www.w3.org/1999/02/22-rdf-syntax-ns#"
   xmlns:svg="http://www.w3.org/2000/svg"
   xmlns="http://www.w3.org/2000/svg"
   xmlns:sodipodi="http://sodipodi.sourceforge.net/DTD/sodipodi-0.dtd"
   xmlns:inkscape="http://www.inkscape.org/namespaces/inkscape"
   width="96"
   height="209"
   viewBox="0 0 96 209"
   id="svg3118"
   version="1.1"
   inkscape:version="0.48.4 r9939"
   sodipodi:docname="HSimpleConstDead_export.svg">
  <metadata
     id="metadata3209">
    <rdf:RDF>
      <cc:Work
         rdf:about="">
        <dc:format>image/svg+xml</dc:format>
        <dc:type
           rdf:resource="http://purl.org/dc/dcmitype/StillImage" />
      </cc:Work>
    </rdf:RDF>
  </metadata>
  <sodipodi:namedview
     pagecolor="#ffffff"
     bordercolor="#666666"
     borderopacity="1"
     objecttolerance="10"
     gridtolerance="10"
     guidetolerance="10"
     inkscape:pageopacity="0"
     inkscape:pageshadow="2"
     inkscape:window-width="640"
     inkscape:window-height="480"
     id="namedview3207"
     showgrid="false"
     inkscape:zoom="1.1291866"
     inkscape:cx="48"
     inkscape:cy="104.5"
     inkscape:window-x="475"
     inkscape:window-y="186"
     inkscape:window-maximized="0"
     inkscape:current-layer="svg3118" />
  <rect
     x="56.5"
     y="-152.5"
     width="96"
     height="209"
     id="rect3120"
     transform="matrix(0,1,-1,0,0,0)"
     style="fill:#ffffff" />
  <g
     clip-path="url(#clip_rect_0)"
     id="g3122"
     transform="matrix(0,1,-1,0,150.25,56.75)">
    <g
       transform="translate(-116,371)"
       id="g3124">
      <g
         id="g3126">
        <rect
           x="335"
           y="143"
           width="30"
           height="14"
           rx="6.7741899"
           ry="6.7741899"
           transform="matrix(0,-1,1,0,0,0)"
           id="rect3128"
           style="fill:#ffffff;stroke:none" />
        <rect
           x="335"
           y="143"
           width="30"
           height="14"
           rx="6.7741899"
           ry="6.7741899"
           transform="matrix(0,-1,1,0,0,0)"
           id="rect3130"
           style="fill:none;stroke:#000000;stroke-width:1" />
        <text
           x="338.5"
           y="169"
           font-size="10"
           transform="matrix(0,-1,1,0,0,0)"
           id="text3132"
           style="font-size:10px;fill:#000000;stroke:none;font-family:Helvetica">Out1</text>
        <text
           x="347"
           y="154.5"
           font-size="10"
           transform="matrix(0,-1,1,0,0,0)"
           clip-path="url(#clip_rect_1)"
           id="text3134"
           style="font-size:10px;fill:#000000;stroke:none;font-family:Helvetica">1</text>
        <rect
           x="275"
           y="132"
           width="30"
           height="31"
           transform="matrix(0,-1,1,0,0,0)"
           id="rect3136"
           style="fill:#ffffff;stroke:none" />
        <text
           x="272"
           y="175"
           font-size="10"
           transform="matrix(0,-1,1,0,0,0)"
           id="text3138"
           style="font-size:10px;fill:#000000;stroke:none;font-family:Helvetica">Product</text>
        <line
           x1="293"
           y1="150"
           x2="287"
           y2="144"
           transform="matrix(0,-1,1,0,0,0)"
           clip-path="url(#clip_rect_2)"
           id="line3140"
           style="stroke:#000000;stroke-width:1" />
        <line
           x1="293"
           y1="144"
           x2="287"
           y2="150"
           transform="matrix(0,-1,1,0,0,0)"
           clip-path="url(#clip_rect_2)"
           id="line3142"
           style="stroke:#000000;stroke-width:1" />
        <rect
           x="275"
           y="132"
           width="30"
           height="31"
           transform="matrix(0,-1,1,0,0,0)"
           id="rect3144"
           style="fill:none;stroke:#000000;stroke-width:1" />
        <rect
           x="170"
           y="122"
           width="55"
           height="36"
           transform="matrix(0,-1,1,0,0,0)"
           id="rect3146"
           style="fill:#ffffff;stroke:none" />
        <text
           x="173"
           y="170"
           font-size="10"
           transform="matrix(0,-1,1,0,0,0)"
           id="text3148"
           style="font-size:10px;fill:#000000;stroke:none;font-family:Helvetica">Constant2</text>
        <text
           x="180.5"
           y="144.5"
           font-size="10"
           transform="matrix(0,-1,1,0,0,0)"
           clip-path="url(#clip_rect_3)"
           id="text3150"
           style="font-size:10px;fill:#000000;stroke:none;font-family:Helvetica">433.22</text>
        <rect
           x="170"
           y="122"
           width="55"
           height="36"
           transform="matrix(0,-1,1,0,0,0)"
           id="rect3152"
           style="fill:none;stroke:#000000;stroke-width:1" />
        <rect
           x="170"
           y="178"
           width="30"
           height="14"
           rx="6.7741899"
           ry="6.7741899"
           transform="matrix(0,-1,1,0,0,0)"
           id="rect3154"
           style="fill:#ffffff;stroke:none" />
        <rect
           x="170"
           y="178"
           width="30"
           height="14"
           rx="6.7741899"
           ry="6.7741899"
           transform="matrix(0,-1,1,0,0,0)"
           id="rect3156"
           style="fill:none;stroke:#000000;stroke-width:1" />
        <text
           x="177.5"
           y="204"
           font-size="10"
           transform="matrix(0,-1,1,0,0,0)"
           id="text3158"
           style="font-size:10px;fill:#000000;stroke:none;font-family:Helvetica">In1</text>
        <text
           x="182"
           y="189.5"
           font-size="10"
           transform="matrix(0,-1,1,0,0,0)"
           clip-path="url(#clip_rect_4)"
           id="text3160"
           style="font-size:10px;fill:#000000;stroke:none;font-family:Helvetica">1</text>
        <line
           x1="305"
           y1="150"
           x2="310"
           y2="150"
           transform="matrix(0,-1,1,0,0,0)"
           id="line3162"
           style="stroke:#000000;stroke-width:1" />
        <line
           x1="330"
           y1="150"
           x2="320"
           y2="150"
           transform="matrix(0,-1,1,0,0,0)"
           id="line3164"
           style="stroke:#000000;stroke-width:1" />
        <polygon
           points="325,155 335,150 325,145 325,145 "
           transform="matrix(0,-1,1,0,0,0)"
           id="polygon3166"
           style="fill:#000000;stroke:none" />
        <polyline
           points="308,150 310,150 320,150 322,150 "
           transform="matrix(0,-1,1,0,0,0)"
           id="polyline3168"
           style="fill:none;stroke:#000000;stroke-width:1" />
        <line
           x1="200"
           y1="185"
           x2="205"
           y2="185"
           transform="matrix(0,-1,1,0,0,0)"
           id="line3170"
           style="stroke:#000000;stroke-width:1" />
        <line
           x1="270"
           y1="155"
           x2="260"
           y2="155"
           transform="matrix(0,-1,1,0,0,0)"
           id="line3172"
           style="stroke:#000000;stroke-width:1" />
        <polygon
           points="265,160 275,155 265,150 265,150 "
           transform="matrix(0,-1,1,0,0,0)"
           id="polygon3174"
           style="fill:#000000;stroke:none" />
        <polyline
           points="203,185 205,185 245,185 245,155 260,155 262,155 "
           transform="matrix(0,-1,1,0,0,0)"
           id="polyline3176"
           style="fill:none;stroke:#000000;stroke-width:1" />
        <line
           x1="225"
           y1="140"
           x2="230"
           y2="140"
           transform="matrix(0,-1,1,0,0,0)"
           id="line3178"
           style="stroke:#000000;stroke-width:1" />
        <line
           x1="270"
           y1="140"
           x2="260"
           y2="140"
           transform="matrix(0,-1,1,0,0,0)"
           id="line3180"
           style="stroke:#000000;stroke-width:1" />
        <polygon
           points="265,145 275,140 265,135 265,135 "
           transform="matrix(0,-1,1,0,0,0)"
           id="polygon3182"
           style="fill:#000000;stroke:none" />
        <polyline
           points="228,140 230,140 260,140 262,140 "
           transform="matrix(0,-1,1,0,0,0)"
           id="polyline3184"
           style="fill:none;stroke:#000000;stroke-width:1" />
      </g>
    </g>
  </g>
  <g
     transform="matrix(0,1,-1,0,209,209)"
     id="g3186">
    <g
       id="g3188" />
  </g>
  <defs
     id="defs3190">
    <clipPath
       id="clip_rect_0">
      <rect
         x="4"
         y="4"
         width="86"
         height="199"
         id="rect3193" />
    </clipPath>
    <clipPath
       id="clip_rect_1">
      <rect
         x="335"
         y="143"
         width="30"
         height="14"
         id="rect3196" />
    </clipPath>
    <clipPath
       id="clip_rect_2">
      <rect
         x="275"
         y="132"
         width="30"
         height="31"
         id="rect3199" />
    </clipPath>
    <clipPath
       id="clip_rect_3">
      <rect
         x="170"
         y="122"
         width="55"
         height="36"
         id="rect3202" />
    </clipPath>
    <clipPath
       id="clip_rect_4">
      <rect
         x="170"
         y="178"
         width="30"
         height="14"
         id="rect3205" />
    </clipPath>
  </defs>
</svg>
